<mxfile host="65bd71144e">
    <diagram id="_PtCRGXLWuhjRJc3H1dN" name="Page-1">
        <mxGraphModel dx="1341" dy="909" grid="1" gridSize="10" guides="1" tooltips="1" connect="1" arrows="1" fold="1" page="1" pageScale="1" pageWidth="1100" pageHeight="850" background="#E6E6E6" math="0" shadow="0">
            <root>
                <mxCell id="0"/>
                <mxCell id="1" parent="0"/>
                <mxCell id="3" value="function" style="rounded=0;whiteSpace=wrap;html=1;align=left;strokeColor=#B266FF;" vertex="1" parent="1">
                    <mxGeometry x="120" y="70" width="200" height="20" as="geometry"/>
                </mxCell>
                <mxCell id="4" value="variable" style="rounded=0;whiteSpace=wrap;html=1;align=left;strokeColor=#007FFF;" vertex="1" parent="1">
                    <mxGeometry x="120" y="40" width="140" height="20" as="geometry"/>
                </mxCell>
                <mxCell id="7" value="Legends:" style="text;html=1;whiteSpace=wrap;overflow=hidden;rounded=0;fontFamily=Helvetica;fontSize=11;labelBackgroundColor=none;fillColor=#ffff88;strokeColor=#36393d;horizontal=1;align=center;" vertex="1" parent="1">
                    <mxGeometry x="60" y="40" width="50" height="50" as="geometry"/>
                </mxCell>
                <mxCell id="12" value="button_id.h" style="sketch=0;pointerEvents=1;shadow=0;dashed=0;html=1;strokeColor=none;fillColor=#005F4B;labelPosition=center;verticalLabelPosition=bottom;verticalAlign=top;align=left;outlineConnect=0;shape=mxgraph.veeam2.data_file;" vertex="1" parent="1">
                    <mxGeometry x="80" y="122" width="28.000000000000004" height="39" as="geometry"/>
                </mxCell>
                <mxCell id="13" value="ENUM_BUTTON_ID" style="rounded=0;whiteSpace=wrap;html=1;align=left;strokeColor=#007FFF;" vertex="1" parent="1">
                    <mxGeometry x="80" y="200" width="140" height="20" as="geometry"/>
                </mxCell>
                <mxCell id="14" value="ui.cpp" style="sketch=0;pointerEvents=1;shadow=0;dashed=0;html=1;strokeColor=none;fillColor=#005F4B;labelPosition=center;verticalLabelPosition=bottom;verticalAlign=top;align=left;outlineConnect=0;shape=mxgraph.veeam2.data_file;" vertex="1" parent="1">
                    <mxGeometry x="280" y="120" width="28.000000000000004" height="39" as="geometry"/>
                </mxCell>
                <mxCell id="15" value="_ui_control_stru" style="rounded=0;whiteSpace=wrap;html=1;align=left;strokeColor=#007FFF;" vertex="1" parent="1">
                    <mxGeometry x="280" y="200" width="140" height="20" as="geometry"/>
                </mxCell>
                <mxCell id="16" value="ui_input" style="rounded=0;whiteSpace=wrap;html=1;align=left;strokeColor=#007FFF;" vertex="1" parent="1">
                    <mxGeometry x="280" y="220" width="140" height="20" as="geometry"/>
                </mxCell>
                <mxCell id="17" value="disp_stru" style="rounded=0;whiteSpace=wrap;html=1;align=left;strokeColor=#007FFF;" vertex="1" parent="1">
                    <mxGeometry x="280" y="240" width="140" height="20" as="geometry"/>
                </mxCell>
                <mxCell id="19" value="ui_callback_type_click" style="rounded=0;whiteSpace=wrap;html=1;align=left;strokeColor=#B266FF;" vertex="1" parent="1">
                    <mxGeometry x="280" y="270" width="200" height="20" as="geometry"/>
                </mxCell>
                <mxCell id="20" value="ui_callback_type_continuous" style="rounded=0;whiteSpace=wrap;html=1;align=left;strokeColor=#B266FF;" vertex="1" parent="1">
                    <mxGeometry x="280" y="290" width="200" height="20" as="geometry"/>
                </mxCell>
                <mxCell id="21" value="ui_callback_type_led" style="rounded=0;whiteSpace=wrap;html=1;align=left;strokeColor=#B266FF;" vertex="1" parent="1">
                    <mxGeometry x="280" y="310" width="200" height="20" as="geometry"/>
                </mxCell>
                <mxCell id="22" value="ui_callback_type_lock_step1" style="rounded=0;whiteSpace=wrap;html=1;align=left;strokeColor=#B266FF;" vertex="1" parent="1">
                    <mxGeometry x="280" y="330" width="200" height="20" as="geometry"/>
                </mxCell>
                <mxCell id="23" value="ui_callback_type_lock_step2" style="rounded=0;whiteSpace=wrap;html=1;align=left;strokeColor=#B266FF;" vertex="1" parent="1">
                    <mxGeometry x="280" y="350" width="200" height="20" as="geometry"/>
                </mxCell>
                <mxCell id="24" value="ui_callback_type_radio" style="rounded=0;whiteSpace=wrap;html=1;align=left;strokeColor=#B266FF;" vertex="1" parent="1">
                    <mxGeometry x="280" y="370" width="200" height="20" as="geometry"/>
                </mxCell>
                <mxCell id="25" value="ui_input_process_1of2" style="rounded=0;whiteSpace=wrap;html=1;align=left;strokeColor=#B266FF;" vertex="1" parent="1">
                    <mxGeometry x="280" y="410" width="200" height="20" as="geometry"/>
                </mxCell>
                <mxCell id="27" value="ui_input_process_2of2" style="rounded=0;whiteSpace=wrap;html=1;align=left;strokeColor=#B266FF;" vertex="1" parent="1">
                    <mxGeometry x="280" y="430" width="200" height="20" as="geometry"/>
                </mxCell>
                <mxCell id="28" value="ui_test_loop_example" style="rounded=0;whiteSpace=wrap;html=1;align=left;strokeColor=#B266FF;" vertex="1" parent="1">
                    <mxGeometry x="280" y="450" width="200" height="20" as="geometry"/>
                </mxCell>
                <mxCell id="29" value="ui03_draw_all" style="rounded=0;whiteSpace=wrap;html=1;align=left;strokeColor=#B266FF;" vertex="1" parent="1">
                    <mxGeometry x="280" y="470" width="200" height="20" as="geometry"/>
                </mxCell>
                <mxCell id="30" value="ui2_draw_layout_lables" style="rounded=0;whiteSpace=wrap;html=1;align=left;strokeColor=#B266FF;" vertex="1" parent="1">
                    <mxGeometry x="280" y="570" width="200" height="20" as="geometry"/>
                </mxCell>
                <mxCell id="31" value="ui2_init" style="rounded=0;whiteSpace=wrap;html=1;align=left;strokeColor=#B266FF;" vertex="1" parent="1">
                    <mxGeometry x="280" y="530" width="200" height="20" as="geometry"/>
                </mxCell>
                <mxCell id="32" value="ui34_draw_final_limits" style="rounded=0;whiteSpace=wrap;html=1;align=left;strokeColor=#B266FF;" vertex="1" parent="1">
                    <mxGeometry x="520" y="302" width="200" height="20" as="geometry"/>
                </mxCell>
                <mxCell id="33" value="ui32_draw_cab_box" style="rounded=0;whiteSpace=wrap;html=1;align=left;strokeColor=#B266FF;" vertex="1" parent="1">
                    <mxGeometry x="520" y="282" width="200" height="20" as="geometry"/>
                </mxCell>
                <mxCell id="34" value="ui_draw_invalidate_rect_area_debug" style="rounded=0;whiteSpace=wrap;html=1;align=left;strokeColor=#B266FF;" vertex="1" parent="1">
                    <mxGeometry x="520" y="262" width="200" height="20" as="geometry"/>
                </mxCell>
                <mxCell id="35" value="ui_draw_floors" style="rounded=0;whiteSpace=wrap;html=1;align=left;strokeColor=#B266FF;" vertex="1" parent="1">
                    <mxGeometry x="520" y="242" width="200" height="20" as="geometry"/>
                </mxCell>
                <mxCell id="36" value="ui2_init_data" style="rounded=0;whiteSpace=wrap;html=1;align=left;strokeColor=#B266FF;" vertex="1" parent="1">
                    <mxGeometry x="280" y="550" width="200" height="20" as="geometry"/>
                </mxCell>
                <mxCell id="37" value="ui31_draw_labelbox" style="rounded=0;whiteSpace=wrap;html=1;align=left;strokeColor=#B266FF;shadow=0;glass=0;" vertex="1" parent="1">
                    <mxGeometry x="280" y="490" width="200" height="20" as="geometry"/>
                </mxCell>
                <mxCell id="38" value="ui2_create_widgets" style="rounded=0;whiteSpace=wrap;html=1;align=left;strokeColor=#B266FF;" vertex="1" parent="1">
                    <mxGeometry x="280" y="590" width="200" height="20" as="geometry"/>
                </mxCell>
                <mxCell id="39" value="BUTTON_STRU" style="rounded=0;whiteSpace=wrap;html=1;align=left;strokeColor=#007FFF;" vertex="1" parent="1">
                    <mxGeometry x="760" y="260" width="140" height="20" as="geometry"/>
                </mxCell>
                <mxCell id="45" value="button_cop1" style="rounded=0;whiteSpace=wrap;html=1;align=left;strokeColor=#007FFF;" vertex="1" parent="1">
                    <mxGeometry x="760" y="240" width="140" height="20" as="geometry"/>
                </mxCell>
                <mxCell id="46" value="button_hop" style="rounded=0;whiteSpace=wrap;html=1;align=left;strokeColor=#007FFF;" vertex="1" parent="1">
                    <mxGeometry x="760" y="220" width="140" height="20" as="geometry"/>
                </mxCell>
                <mxCell id="47" value="button_output" style="rounded=0;whiteSpace=wrap;html=1;align=left;strokeColor=#007FFF;" vertex="1" parent="1">
                    <mxGeometry x="760" y="200" width="140" height="20" as="geometry"/>
                </mxCell>
                <mxCell id="48" value="UI_INPUT_STRU" style="rounded=0;whiteSpace=wrap;html=1;align=left;strokeColor=#007FFF;" vertex="1" parent="1">
                    <mxGeometry x="80" y="579.5" width="140" height="20" as="geometry"/>
                </mxCell>
                <mxCell id="49" value="DISP_STRU" style="rounded=0;whiteSpace=wrap;html=1;align=left;strokeColor=#007FFF;" vertex="1" parent="1">
                    <mxGeometry x="80" y="559.5" width="140" height="20" as="geometry"/>
                </mxCell>
                <mxCell id="50" value="ui.h" style="sketch=0;pointerEvents=1;shadow=0;dashed=0;html=1;strokeColor=none;fillColor=#005F4B;labelPosition=center;verticalLabelPosition=bottom;verticalAlign=top;align=left;outlineConnect=0;shape=mxgraph.veeam2.data_file;" vertex="1" parent="1">
                    <mxGeometry x="80" y="470" width="28.000000000000004" height="39" as="geometry"/>
                </mxCell>
                <mxCell id="52" value="ui_animation.cpp" style="sketch=0;pointerEvents=1;shadow=0;dashed=0;html=1;strokeColor=none;fillColor=#005F4B;labelPosition=center;verticalLabelPosition=bottom;verticalAlign=top;align=left;outlineConnect=0;shape=mxgraph.veeam2.data_file;" vertex="1" parent="1">
                    <mxGeometry x="520" y="122" width="28.000000000000004" height="39" as="geometry"/>
                </mxCell>
                <mxCell id="55" value="ui_convert_door_opening" style="rounded=0;whiteSpace=wrap;html=1;align=left;strokeColor=#B266FF;" vertex="1" parent="1">
                    <mxGeometry x="520" y="222" width="200" height="20" as="geometry"/>
                </mxCell>
                <mxCell id="56" value="ui_convert_car_y_pix" style="rounded=0;whiteSpace=wrap;html=1;align=left;strokeColor=#B266FF;" vertex="1" parent="1">
                    <mxGeometry x="520" y="202" width="200" height="20" as="geometry"/>
                </mxCell>
                <mxCell id="57" value="ui_create_button_type_click" style="rounded=0;whiteSpace=wrap;html=1;align=left;strokeColor=#B266FF;" vertex="1" parent="1">
                    <mxGeometry x="520" y="659.5" width="200" height="20" as="geometry"/>
                </mxCell>
                <mxCell id="58" value="ui_create_button_type_lock" style="rounded=0;whiteSpace=wrap;html=1;align=left;strokeColor=#B266FF;" vertex="1" parent="1">
                    <mxGeometry x="520" y="639.5" width="200" height="20" as="geometry"/>
                </mxCell>
                <mxCell id="59" value="ui36_draw_door" style="rounded=0;whiteSpace=wrap;html=1;align=left;strokeColor=#B266FF;" vertex="1" parent="1">
                    <mxGeometry x="520" y="322" width="200" height="20" as="geometry"/>
                </mxCell>
                <mxCell id="60" value="ui30_draw_custom_button_trigger_redraw" style="rounded=0;whiteSpace=wrap;html=1;align=left;strokeColor=#B266FF;" vertex="1" parent="1">
                    <mxGeometry x="520" y="619.5" width="200" height="20" as="geometry"/>
                </mxCell>
                <mxCell id="61" value="ui_create_hop2" style="rounded=0;whiteSpace=wrap;html=1;align=left;strokeColor=#B266FF;" vertex="1" parent="1">
                    <mxGeometry x="760" y="380" width="200" height="20" as="geometry"/>
                </mxCell>
                <mxCell id="62" value="ui_create_cop3" style="rounded=0;whiteSpace=wrap;html=1;align=left;strokeColor=#B266FF;" vertex="1" parent="1">
                    <mxGeometry x="760" y="360" width="200" height="20" as="geometry"/>
                </mxCell>
                <mxCell id="63" value="ui_create_cop2" style="rounded=0;whiteSpace=wrap;html=1;align=left;strokeColor=#B266FF;" vertex="1" parent="1">
                    <mxGeometry x="760" y="339" width="200" height="20" as="geometry"/>
                </mxCell>
                <mxCell id="64" value="ui_create_button_cop1" style="rounded=0;whiteSpace=wrap;html=1;align=left;strokeColor=#B266FF;" vertex="1" parent="1">
                    <mxGeometry x="760" y="320" width="200" height="20" as="geometry"/>
                </mxCell>
                <mxCell id="65" value="ui_create_button_hop" style="rounded=0;whiteSpace=wrap;html=1;align=left;strokeColor=#B266FF;" vertex="1" parent="1">
                    <mxGeometry x="760" y="300" width="200" height="20" as="geometry"/>
                </mxCell>
                <mxCell id="66" value="ui_create_led_output" style="rounded=0;whiteSpace=wrap;html=1;align=left;strokeColor=#B266FF;" vertex="1" parent="1">
                    <mxGeometry x="760" y="280" width="200" height="20" as="geometry"/>
                </mxCell>
                <mxCell id="67" value="ui_config.h" style="sketch=0;pointerEvents=1;shadow=0;dashed=0;html=1;strokeColor=none;fillColor=#005F4B;labelPosition=center;verticalLabelPosition=bottom;verticalAlign=top;align=left;outlineConnect=0;shape=mxgraph.veeam2.data_file;" vertex="1" parent="1">
                    <mxGeometry x="80" y="320" width="28.000000000000004" height="39" as="geometry"/>
                </mxCell>
                <mxCell id="68" value="UI_VERSION_Y" style="rounded=0;whiteSpace=wrap;html=1;align=left;strokeColor=#007FFF;" vertex="1" parent="1">
                    <mxGeometry x="80" y="380" width="140" height="20" as="geometry"/>
                </mxCell>
                <mxCell id="69" value="ui_create.cpp" style="sketch=0;pointerEvents=1;shadow=0;dashed=0;html=1;strokeColor=none;fillColor=#005F4B;labelPosition=center;verticalLabelPosition=bottom;verticalAlign=top;align=left;outlineConnect=0;shape=mxgraph.veeam2.data_file;" vertex="1" parent="1">
                    <mxGeometry x="760" y="122" width="28.000000000000004" height="39" as="geometry"/>
                </mxCell>
                <mxCell id="70" value="ui30_draw_button_led_color" style="rounded=0;whiteSpace=wrap;html=1;align=left;strokeColor=#B266FF;" vertex="1" parent="1">
                    <mxGeometry x="520" y="599.5" width="200" height="20" as="geometry"/>
                </mxCell>
                <mxCell id="71" value="ui30_draw_button_led_black" style="rounded=0;whiteSpace=wrap;html=1;align=left;strokeColor=#B266FF;" vertex="1" parent="1">
                    <mxGeometry x="520" y="579.5" width="200" height="20" as="geometry"/>
                </mxCell>
                <mxCell id="72" value="ui_create_radio_type_3pos" style="rounded=0;whiteSpace=wrap;html=1;align=left;strokeColor=#B266FF;" vertex="1" parent="1">
                    <mxGeometry x="520" y="539.5" width="200" height="20" as="geometry"/>
                </mxCell>
                <mxCell id="73" value="ui_create_radio_type_2pos" style="rounded=0;whiteSpace=wrap;html=1;align=left;strokeColor=#B266FF;" vertex="1" parent="1">
                    <mxGeometry x="520" y="559.5" width="200" height="20" as="geometry"/>
                </mxCell>
                <mxCell id="74" value="ui11_create_label_no_border" style="rounded=0;whiteSpace=wrap;html=1;align=left;strokeColor=#B266FF;" vertex="1" parent="1">
                    <mxGeometry x="520" y="519.5" width="200" height="20" as="geometry"/>
                </mxCell>
                <mxCell id="75" value="ui11_create_label" style="rounded=0;whiteSpace=wrap;html=1;align=left;strokeColor=#B266FF;" vertex="1" parent="1">
                    <mxGeometry x="520" y="499.5" width="200" height="20" as="geometry"/>
                </mxCell>
                <mxCell id="76" value="ui_create_font9" style="rounded=0;whiteSpace=wrap;html=1;align=left;strokeColor=#B266FF;" vertex="1" parent="1">
                    <mxGeometry x="520" y="479.5" width="200" height="20" as="geometry"/>
                </mxCell>
                <mxCell id="77" value="ui10_apply_font_to_control" style="rounded=0;whiteSpace=wrap;html=1;align=left;strokeColor=#B266FF;" vertex="1" parent="1">
                    <mxGeometry x="520" y="459.5" width="200" height="20" as="geometry"/>
                </mxCell>
                <mxCell id="78" value="ui_internal_printf" style="rounded=0;whiteSpace=wrap;html=1;align=left;strokeColor=#B266FF;" vertex="1" parent="1">
                    <mxGeometry x="760" y="659.75" width="200" height="20" as="geometry"/>
                </mxCell>
                <mxCell id="79" value="ui_logbox_get_ms64" style="rounded=0;whiteSpace=wrap;html=1;align=left;strokeColor=#B266FF;" vertex="1" parent="1">
                    <mxGeometry x="760" y="639.75" width="200" height="20" as="geometry"/>
                </mxCell>
                <mxCell id="80" value="ui_logbox_clear_content" style="rounded=0;whiteSpace=wrap;html=1;align=left;strokeColor=#B266FF;" vertex="1" parent="1">
                    <mxGeometry x="760" y="619.75" width="200" height="20" as="geometry"/>
                </mxCell>
                <mxCell id="81" value="ui_logbox_save_content_to_file" style="rounded=0;whiteSpace=wrap;html=1;align=left;strokeColor=#B266FF;" vertex="1" parent="1">
                    <mxGeometry x="760" y="599.75" width="200" height="20" as="geometry"/>
                </mxCell>
                <mxCell id="82" value="ui_logbox_printf" style="rounded=0;whiteSpace=wrap;html=1;align=left;strokeColor=#B266FF;" vertex="1" parent="1">
                    <mxGeometry x="760" y="579.75" width="200" height="20" as="geometry"/>
                </mxCell>
                <mxCell id="83" value="ui_create_logbox" style="rounded=0;whiteSpace=wrap;html=1;align=left;strokeColor=#B266FF;" vertex="1" parent="1">
                    <mxGeometry x="760" y="559.75" width="200" height="20" as="geometry"/>
                </mxCell>
                <mxCell id="84" value="ui_create_machineroom" style="rounded=0;whiteSpace=wrap;html=1;align=left;strokeColor=#B266FF;" vertex="1" parent="1">
                    <mxGeometry x="760" y="400" width="200" height="20" as="geometry"/>
                </mxCell>
                <mxCell id="85" value="ui_logbox.cpp" style="sketch=0;pointerEvents=1;shadow=0;dashed=0;html=1;strokeColor=none;fillColor=#005F4B;labelPosition=center;verticalLabelPosition=bottom;verticalAlign=top;align=left;outlineConnect=0;shape=mxgraph.veeam2.data_file;" vertex="1" parent="1">
                    <mxGeometry x="760" y="480.25" width="28.000000000000004" height="39" as="geometry"/>
                </mxCell>
                <mxCell id="86" value="ui_lowlevel.cpp" style="sketch=0;pointerEvents=1;shadow=0;dashed=0;html=1;strokeColor=none;fillColor=#005F4B;labelPosition=center;verticalLabelPosition=bottom;verticalAlign=top;align=left;outlineConnect=0;shape=mxgraph.veeam2.data_file;" vertex="1" parent="1">
                    <mxGeometry x="520" y="400.5" width="28.000000000000004" height="39" as="geometry"/>
                </mxCell>
                <mxCell id="95" value="_ui31_print_binary_array" style="rounded=0;whiteSpace=wrap;html=1;align=left;strokeColor=#B266FF;" vertex="1" parent="1">
                    <mxGeometry x="520" y="719.5" width="200" height="20" as="geometry"/>
                </mxCell>
                <mxCell id="96" value="ui65_get_formatted_clock_string" style="rounded=0;whiteSpace=wrap;html=1;align=left;strokeColor=#B266FF;" vertex="1" parent="1">
                    <mxGeometry x="520" y="699.5" width="200" height="20" as="geometry"/>
                </mxCell>
                <mxCell id="97" value="ui_create_button_type_continuous" style="rounded=0;whiteSpace=wrap;html=1;align=left;strokeColor=#B266FF;" vertex="1" parent="1">
                    <mxGeometry x="520" y="679.5" width="200" height="20" as="geometry"/>
                </mxCell>
                <mxCell id="98" value="" style="rounded=0;whiteSpace=wrap;html=1;fillColor=none;fontColor=#ffffff;strokeColor=#2D7600;" vertex="1" parent="1">
                    <mxGeometry x="750" y="469.75" width="220" height="220.25" as="geometry"/>
                </mxCell>
            </root>
        </mxGraphModel>
    </diagram>
</mxfile>